<svg id="Layer_1" data-name="Layer 1" xmlns="http://www.w3.org/2000/svg" viewBox="0 0 14.6 14.6"><title>q1</title><path d="M8.695,11.7l-1.007-.9a4.425,4.425,0,0,1-2.555.792A4.262,4.262,0,0,1,.755,7.27V7.246A4.3,4.3,0,0,1,5.156,2.9,4.261,4.261,0,0,1,9.534,7.222V7.246a4.342,4.342,0,0,1-.852,2.579l0.96,0.815ZM6.608,9.837L5.156,8.6,6.1,7.522,7.579,8.865a3.155,3.155,0,0,0,.408-1.6V7.246A2.877,2.877,0,0,0,5.133,4.259,2.837,2.837,0,0,0,2.3,7.222V7.246A2.872,2.872,0,0,0,6.608,9.837Z"/><path d="M12.382,4.488l-1.511.419-0.312-1.2,2.267-.72h1.02v8.456H12.382V4.488Z"/></svg>